<?xml version="1.0"?>
<svg xmlns="http://www.w3.org/2000/svg" id="Layer_1" data-name="Layer 1" viewBox="0 0 512 512" width="512" height="512"><title>Jigsaw</title><path d="M477.4,217.441c-10.152,0-19.917,6.2-25.473,15.666v-62.77a6,6,0,0,0-6-6H385.489c8.651-5.666,14.229-14.949,14.229-24.588,0-16.322-15.926-29.6-35.5-29.6s-35.5,13.279-35.5,29.6c0,9.642,5.577,18.923,14.226,24.588H280.713a6,6,0,0,0-6,6v70.805a6,6,0,0,0,6,6h9.293a6,6,0,0,0,5.665-4.024c2.764-7.925,9.891-13.677,16.945-13.677,9.706,0,17.6,10.543,17.6,23.5s-7.9,23.5-17.6,23.5c-7.054,0-14.181-5.752-16.945-13.677a6,6,0,0,0-5.665-4.024h-8.863a6,6,0,0,0-6,6v65.044H218.367c9.466-5.557,15.666-15.321,15.666-25.473,0-16.322-15.927-29.6-35.5-29.6s-35.5,13.28-35.5,29.6c0,10.152,6.2,19.916,15.666,25.473H115.925a6,6,0,0,0-6,6v60.437C104.258,387.573,94.976,382,85.337,382c-16.323,0-29.6,15.926-29.6,35.5S69.014,453,85.337,453c9.641,0,18.923-5.577,24.588-14.226V501a6,6,0,0,0,6,6h68.917a6,6,0,0,0,2.547-11.432c-6.884-3.229-11.51-9.682-11.51-16.057,0-9.706,10.543-17.6,23.5-17.6s23.5,7.9,23.5,17.6c0,6.375-4.626,12.828-11.512,16.057A6,6,0,0,0,213.919,507H349.624a6,6,0,0,0,2.547-11.432c-6.884-3.229-11.51-9.682-11.51-16.057,0-9.706,10.543-17.6,23.5-17.6s23.5,7.9,23.5,17.6c0,6.375-4.626,12.828-11.511,16.057A6,6,0,0,0,378.7,507h67.217a6,6,0,0,0,6-6V429.3a6,6,0,0,0-6-6h-.684a6,6,0,0,0-5.668,4.032c-2.75,7.921-9.875,13.669-16.942,13.669-9.705,0-17.6-10.543-17.6-23.5s7.9-23.5,17.6-23.5c7.064,0,14.189,5.749,16.942,13.671a6,6,0,0,0,5.668,4.03h.684a6,6,0,0,0,6-6V335.788c0-.08,0-.16,0-.239l.011-62.77c5.556,9.466,15.321,15.666,25.473,15.666,16.323,0,29.6-15.926,29.6-35.5S493.721,217.441,477.4,217.441ZM275.137,495H229.985a27.745,27.745,0,0,0,4.9-15.489c0-16.323-15.926-29.6-35.5-29.6s-35.5,13.279-35.5,29.6a27.752,27.752,0,0,0,4.9,15.489H121.925V429.3a6,6,0,0,0-6-6h-7.978a6,6,0,0,0-5.668,4.032,21.94,21.94,0,0,1-7.064,10A16.3,16.3,0,0,1,85.337,441c-9.706,0-17.6-10.543-17.6-23.5s7.9-23.5,17.6-23.5c7.063,0,14.189,5.75,16.943,13.672a6,6,0,0,0,5.667,4.029h7.978a6,6,0,0,0,6-6V341.788h64.8a6,6,0,0,0,6-6v-8.863a6,6,0,0,0-4.024-5.665,22.026,22.026,0,0,1-10.01-7.073,16.28,16.28,0,0,1-3.668-9.872c0-9.706,10.543-17.6,23.5-17.6s23.5,7.9,23.5,17.6a16.28,16.28,0,0,1-3.668,9.872,22.026,22.026,0,0,1-10.01,7.073,6,6,0,0,0-4.024,5.665v8.863a6,6,0,0,0,6,6h64.806v46.467A28.194,28.194,0,0,0,257.843,382c-16.323,0-29.6,15.926-29.6,35.5s13.279,35.5,29.6,35.5a28.2,28.2,0,0,0,17.294-6.257ZM439.918,388.255A28.192,28.192,0,0,0,422.624,382c-16.322,0-29.6,15.926-29.6,35.5S406.3,453,422.624,453a28.191,28.191,0,0,0,17.294-6.257V495H394.767a27.745,27.745,0,0,0,4.9-15.489c0-16.323-15.926-29.6-35.5-29.6s-35.5,13.279-35.5,29.6a27.745,27.745,0,0,0,4.9,15.489H287.137V429.3a6,6,0,0,0-6-6h-.685a6,6,0,0,0-5.668,4.032,21.938,21.938,0,0,1-7.063,10A16.3,16.3,0,0,1,257.843,441c-9.706,0-17.6-10.543-17.6-23.5s7.9-23.5,17.6-23.5c7.063,0,14.188,5.749,16.942,13.671a6,6,0,0,0,5.667,4.03h.685a6,6,0,0,0,6-6V341.788h64.375a6,6,0,0,0,6-6v-8.863a6,6,0,0,0-4.024-5.665c-7.926-2.764-13.677-9.891-13.677-16.945,0-9.706,10.543-17.6,23.5-17.6s23.5,7.9,23.5,17.6c0,7.054-5.753,14.181-13.678,16.945a6,6,0,0,0-4.024,5.665v8.863a6,6,0,0,0,6,6h64.805Zm37.48-111.81c-7.054,0-14.181-5.752-16.944-13.677a6,6,0,0,0-5.666-4.024h-8.863a6,6,0,0,0-6,6v65.044H383.149c9.466-5.557,15.666-15.321,15.666-25.473,0-16.322-15.926-29.6-35.5-29.6s-35.5,13.28-35.5,29.6c0,10.152,6.2,19.916,15.665,25.473H287.143V272.779c5.556,9.466,15.32,15.666,25.473,15.666,16.322,0,29.6-15.926,29.6-35.5s-13.28-35.5-29.6-35.5c-10.42,0-20.43,6.531-25.9,16.419V176.337h65.7a6,6,0,0,0,6-6V162.36a6,6,0,0,0-4.032-5.668c-7.921-2.751-13.67-9.876-13.67-16.943,0-9.7,10.543-17.6,23.5-17.6s23.5,7.9,23.5,17.6c0,7.063-5.75,14.189-13.672,16.944a6,6,0,0,0-4.029,5.667v7.977a6,6,0,0,0,6,6h63.908v64.805a6,6,0,0,0,6,6h8.863a6,6,0,0,0,5.666-4.024c2.763-7.925,9.89-13.677,16.944-13.677,9.706,0,17.6,10.543,17.6,23.5S487.1,276.445,477.4,276.445Z"/><path d="M20.534,121.345c8.705,4.147,19.482,3.106,28.317-2.268L22.085,175.254a6,6,0,0,0,2.836,8L87.137,212.9a6,6,0,0,0,7.218-9.225c-4.827-5.876-6.228-13.691-3.485-19.447,1.912-4.014,5.794-6.888,10.93-8.091a27.381,27.381,0,0,1,17.858,2.31c11.7,5.574,17.821,17.237,13.646,26-2.742,5.755-9.691,9.607-17.3,9.544a6,6,0,0,0-2.618,11.416l60.682,28.913a6,6,0,0,0,8-2.836l30.841-64.731a6,6,0,0,0-2.836-8l-.618-.294a6,6,0,0,0-6.851,1.2c-5.89,5.967-14.8,8.092-21.174,5.053-8.762-4.175-11.356-17.089-5.782-28.788s17.238-17.821,26-13.647c6.376,3.039,10.335,11.294,9.414,19.63a6,6,0,0,0,3.384,6.076l.618.295a6,6,0,0,0,8-2.836l30.069-63.112a6,6,0,0,0-2.836-8l-56.666-27c10.934-.945,20.732-7.093,25.1-16.258,3.513-7.372,3.286-15.889-.637-23.982A40.93,40.93,0,0,0,173.652,5.921c-8.757,2.052-15.515,7.241-19.027,14.613-4.367,9.166-2.97,20.647,3.185,29.734l-56.665-27a6,6,0,0,0-8,2.836l-26,54.56C65.757,70.419,59.777,61.39,51.075,57.244,36.339,50.223,17.5,58.89,9.081,76.562a39.394,39.394,0,0,0-3.159,25.756C7.973,111.075,13.163,117.832,20.534,121.345Zm-.619-39.622c5.574-11.7,17.237-17.819,26-13.646,6.376,3.038,10.336,11.294,9.415,19.631a6,6,0,0,0,3.383,6.075l7.2,3.431a6,6,0,0,0,8-2.835l27.489-57.7,58.5,27.874a6,6,0,0,0,8-2.836l3.812-8a6,6,0,0,0-1.2-6.845c-5.966-5.905-8.093-14.813-5.059-21.181,1.913-4.014,5.795-6.888,10.931-8.091a27.379,27.379,0,0,1,17.857,2.309A27.386,27.386,0,0,1,207.29,32.328c2.3,4.747,2.515,9.571.6,13.586-3.034,6.368-11.29,10.327-19.636,9.414a6,6,0,0,0-6.069,3.384l-3.812,8a6,6,0,0,0,2.836,8l58.5,27.875-19.987,41.949a28.2,28.2,0,0,0-12.92-13.091c-14.737-7.02-33.574,1.646-41.994,19.318s-3.282,37.763,11.454,44.783a28.193,28.193,0,0,0,18.3,1.79L173.814,240.9l-40.761-19.421A27.748,27.748,0,0,0,144.137,209.6c7.021-14.735-1.645-33.574-19.318-41.993a39.4,39.4,0,0,0-25.756-3.161c-8.757,2.052-15.514,7.241-19.027,14.614A27.756,27.756,0,0,0,77.8,195.151L35.5,175l28.26-59.314a6,6,0,0,0-2.836-8l-7.2-3.431a6,6,0,0,0-6.851,1.2c-5.891,5.968-14.8,8.092-21.175,5.054-4.014-1.913-6.888-5.8-8.091-10.931A27.382,27.382,0,0,1,19.915,81.723Z"/></svg>
